<svg id="Capa_1" enable-background="new 0 0 511.999 511.999" height="512" viewBox="0 0 511.999 511.999" width="512" xmlns="http://www.w3.org/2000/svg"><circle cx="247.981" cy="280.048" fill="#5d5360" r="136.274"/><circle cx="247.981" cy="280.048" fill="#4b3f4e" r="104.21"/><path d="m247.981 55.596c-123.961 0-224.452 100.49-224.452 224.452 0 123.961 100.49 224.452 224.452 224.452s224.452-100.491 224.452-224.452c0-123.962-100.49-224.452-224.452-224.452zm-120.242 272.548c-26.563 0-48.097-21.534-48.097-48.097s21.534-48.097 48.097-48.097 48.097 21.534 48.097 48.097c0 26.564-21.533 48.097-48.097 48.097zm120.242 120.242c-26.563 0-48.097-21.534-48.097-48.097s21.534-48.097 48.097-48.097 48.097 21.534 48.097 48.097c0 26.564-21.534 48.097-48.097 48.097zm0-240.484c-26.563 0-48.097-21.534-48.097-48.097s21.534-48.097 48.097-48.097 48.097 21.534 48.097 48.097-21.534 48.097-48.097 48.097zm120.242 120.242c-26.563 0-48.097-21.534-48.097-48.097s21.534-48.097 48.097-48.097 48.097 21.534 48.097 48.097c0 26.564-21.534 48.097-48.097 48.097z" fill="#eceaec"/><circle cx="247.981" cy="280.048" fill="#c8c5c9" r="24.048"/><path d="m268.022 484.459c-123.961 0-224.452-100.491-224.452-224.452 0-56.88 21.199-108.781 56.074-148.337-46.65 41.13-76.114 101.296-76.114 168.378 0 123.961 100.49 224.452 224.452 224.452 67.081 0 127.248-29.465 168.377-76.115-39.556 34.874-91.457 56.074-148.337 56.074z" fill="#dad8db"/><path d="m495.455 247.914c-3.86-61.064-30.553-118.486-75.162-161.688-44.587-43.182-102.838-68.063-164.021-70.059-27.91-.91-55.424 2.77-81.783 10.938-29.356 9.098-61.175-.479-81.063-24.398-.147-.176-.303-.348-.465-.51-2.929-2.929-7.676-2.927-10.606 0-2.785 2.785-2.921 7.215-.411 10.162 23.781 28.552 61.841 39.962 96.984 29.074 24.762-7.673 50.616-11.131 76.854-10.273 57.451 1.875 112.169 25.258 154.075 65.842 41.92 40.598 67.002 94.529 70.627 151.859.821 12.984.581 25.847-.68 38.539.076-2.445.127-4.894.127-7.352 0-55.391-19.897-109.044-56.027-151.078-2.7-3.142-7.435-3.499-10.576-.799s-3.499 7.435-.799 10.576c33.792 39.314 52.402 89.495 52.402 141.3 0 57.95-22.567 112.431-63.543 153.408-39.666 39.666-91.987 62.08-147.859 63.473-1.847.042-3.696.071-5.55.071-57.95 0-112.431-22.567-153.408-63.544-40.975-40.976-63.541-95.458-63.541-153.408s22.567-112.431 63.543-153.408c40.977-40.977 95.458-63.543 153.408-63.543 52.494 0 103.182 19.048 142.725 53.636 3.118 2.727 7.856 2.411 10.583-.708 2.727-3.118 2.411-7.856-.707-10.583-42.279-36.98-96.473-57.346-152.601-57.346-61.957 0-120.205 24.127-164.015 67.937s-67.937 102.058-67.937 164.015 24.127 120.205 67.937 164.015 102.058 67.937 164.015 67.937c1.982 0 3.96-.026 5.935-.076 32.75-.76 64.433-7.811 94.261-21.001 30.548-13.509 57.678-32.757 80.634-57.211 22.918-24.413 40.384-52.643 51.911-83.908 11.994-32.527 16.951-66.808 14.733-101.889z"/><path d="m279.53 280.047c0-17.396-14.152-31.548-31.548-31.548s-31.548 14.152-31.548 31.548 14.152 31.548 31.548 31.548 31.548-14.152 31.548-31.548zm-48.097 0c0-9.125 7.423-16.548 16.548-16.548s16.548 7.423 16.548 16.548-7.423 16.548-16.548 16.548c-9.125.001-16.548-7.423-16.548-16.548z"/><path d="m247.981 104.209c-30.656 0-55.597 24.941-55.597 55.597s24.94 55.597 55.597 55.597 55.597-24.94 55.597-55.597-24.941-55.597-55.597-55.597zm-40.596 55.597c0-.67.019-1.335.051-1.997 13.036-4.322 26.664-6.535 40.546-6.535 13.888 0 27.511 2.193 40.545 6.515.033.668.051 1.341.051 2.018 0 5.317-1.038 10.394-2.905 15.052-12.062-4.328-24.716-6.52-37.692-6.52-12.972 0-25.626 2.196-37.69 6.524-1.868-4.66-2.906-9.738-2.906-15.057zm40.596-40.597c15.516 0 29.021 8.754 35.852 21.579-11.656-2.994-23.664-4.514-35.852-4.514-12.18 0-24.193 1.516-35.85 4.51 6.832-12.823 20.336-21.575 35.85-21.575zm0 81.193c-11.502 0-21.894-4.816-29.288-12.528 9.428-2.997 19.243-4.537 29.288-4.537 10.052 0 19.873 1.523 29.302 4.522-7.395 7.721-17.792 12.543-29.302 12.543z"/><path d="m192.385 400.29c0 30.656 24.94 55.597 55.597 55.597s55.597-24.94 55.597-55.597-24.94-55.597-55.597-55.597-55.597 24.94-55.597 55.597zm96.193 0c0 .669-.019 1.335-.051 1.997-13.038 4.322-26.666 6.536-40.546 6.536-13.887 0-27.51-2.193-40.545-6.515-.033-.669-.051-1.341-.051-2.018 0-5.317 1.038-10.394 2.905-15.052 12.062 4.328 24.715 6.52 37.692 6.52 12.971 0 25.625-2.196 37.69-6.524 1.867 4.659 2.906 9.737 2.906 15.056zm-40.597 40.596c-15.516 0-29.021-8.753-35.852-21.578 11.656 2.994 23.665 4.514 35.852 4.514 12.179 0 24.192-1.516 35.85-4.51-6.831 12.823-20.335 21.574-35.85 21.574zm0-81.193c11.502 0 21.894 4.816 29.288 12.528-9.428 2.997-19.243 4.537-29.288 4.537-10.052 0-19.873-1.523-29.302-4.522 7.395-7.721 17.793-12.543 29.302-12.543z"/><path d="m312.626 280.047c0 30.656 24.94 55.597 55.597 55.597s55.597-24.94 55.597-55.597-24.941-55.597-55.597-55.597-55.597 24.941-55.597 55.597zm15 0c0-11.502 4.816-21.894 12.528-29.288 2.997 9.428 4.537 19.243 4.537 29.288 0 10.052-1.523 19.874-4.521 29.302-7.721-7.394-12.544-17.792-12.544-29.302zm25.545 37.692c4.328-12.062 6.52-24.715 6.52-37.692 0-12.972-2.196-25.626-6.524-37.69 4.659-1.868 9.737-2.907 15.056-2.907.67 0 1.335.019 1.997.051 4.322 13.037 6.536 26.665 6.536 40.546 0 13.887-2.193 27.51-6.515 40.545-.668.033-1.341.051-2.018.051-5.317.001-10.394-1.037-15.052-2.904zm55.649-37.692c0 15.516-8.754 29.021-21.578 35.852 2.994-11.656 4.514-23.664 4.514-35.852 0-12.179-1.516-24.192-4.51-35.85 12.822 6.832 21.574 20.336 21.574 35.85z"/><path d="m72.142 280.047c0 30.656 24.94 55.597 55.597 55.597s55.597-24.94 55.597-55.597-24.941-55.597-55.597-55.597-55.597 24.941-55.597 55.597zm15 0c0-15.516 8.753-29.021 21.578-35.852-2.994 11.656-4.514 23.665-4.514 35.852 0 12.179 1.516 24.192 4.51 35.85-12.822-6.831-21.574-20.335-21.574-35.85zm38.6 40.546c-4.322-13.037-6.536-26.665-6.536-40.546 0-13.888 2.193-27.51 6.515-40.545.668-.033 1.341-.051 2.017-.051 5.317 0 10.394 1.038 15.052 2.905-4.328 12.061-6.52 24.714-6.52 37.692 0 12.972 2.196 25.626 6.524 37.69-4.659 1.868-9.738 2.907-15.056 2.907-.668-.001-1.334-.019-1.996-.052zm42.594-40.546c0 11.502-4.816 21.894-12.528 29.288-2.997-9.427-4.537-19.243-4.537-29.288 0-10.052 1.523-19.874 4.521-29.302 7.722 7.395 12.544 17.793 12.544 29.302z"/></svg>